<mxfile host="Electron" agent="Mozilla/5.0 (Windows NT 10.0; Win64; x64) AppleWebKit/537.36 (KHTML, like Gecko) draw.io/24.7.8 Chrome/128.0.6613.36 Electron/32.0.1 Safari/537.36" version="24.7.8">
  <diagram name="Page-1" id="VJF5k6fLpfAGvwSMJQAE">
    <mxGraphModel dx="1434" dy="836" grid="1" gridSize="10" guides="1" tooltips="1" connect="1" arrows="1" fold="1" page="1" pageScale="1" pageWidth="2339" pageHeight="3300" math="0" shadow="0">
      <root>
        <mxCell id="0" />
        <mxCell id="1" parent="0" />
        <mxCell id="T0k8kfAdnnVemv1u1ayL-10" value="" style="group" vertex="1" connectable="0" parent="1">
          <mxGeometry x="110" y="340" width="580" height="200" as="geometry" />
        </mxCell>
        <mxCell id="T0k8kfAdnnVemv1u1ayL-1" value="Blog" style="shape=umlFrame;whiteSpace=wrap;html=1;pointerEvents=0;" vertex="1" parent="T0k8kfAdnnVemv1u1ayL-10">
          <mxGeometry width="420" height="200" as="geometry" />
        </mxCell>
        <mxCell id="T0k8kfAdnnVemv1u1ayL-6" style="edgeStyle=orthogonalEdgeStyle;rounded=0;orthogonalLoop=1;jettySize=auto;html=1;" edge="1" parent="T0k8kfAdnnVemv1u1ayL-10" source="T0k8kfAdnnVemv1u1ayL-4" target="T0k8kfAdnnVemv1u1ayL-5">
          <mxGeometry relative="1" as="geometry" />
        </mxCell>
        <mxCell id="T0k8kfAdnnVemv1u1ayL-4" value="&lt;p style=&quot;margin:0px;margin-top:4px;text-align:center;&quot;&gt;&lt;b&gt;Post&lt;/b&gt;&lt;/p&gt;&lt;hr size=&quot;1&quot; style=&quot;border-style:solid;&quot;&gt;&lt;div style=&quot;height:2px;&quot;&gt;&lt;/div&gt;" style="verticalAlign=top;align=left;overflow=fill;html=1;whiteSpace=wrap;" vertex="1" parent="T0k8kfAdnnVemv1u1ayL-10">
          <mxGeometry x="30" y="70" width="140" height="60" as="geometry" />
        </mxCell>
        <mxCell id="T0k8kfAdnnVemv1u1ayL-5" value="&lt;p style=&quot;margin:0px;margin-top:4px;text-align:center;&quot;&gt;&lt;b&gt;Category&lt;/b&gt;&lt;/p&gt;&lt;hr size=&quot;1&quot; style=&quot;border-style:solid;&quot;&gt;&lt;div style=&quot;height:2px;&quot;&gt;&lt;/div&gt;" style="verticalAlign=top;align=left;overflow=fill;html=1;whiteSpace=wrap;" vertex="1" parent="T0k8kfAdnnVemv1u1ayL-10">
          <mxGeometry x="230" y="70" width="140" height="60" as="geometry" />
        </mxCell>
        <mxCell id="T0k8kfAdnnVemv1u1ayL-7" value="Sql Server" style="shape=datastore;whiteSpace=wrap;html=1;" vertex="1" parent="T0k8kfAdnnVemv1u1ayL-10">
          <mxGeometry x="520" y="40" width="60" height="60" as="geometry" />
        </mxCell>
        <mxCell id="T0k8kfAdnnVemv1u1ayL-9" style="edgeStyle=orthogonalEdgeStyle;rounded=0;orthogonalLoop=1;jettySize=auto;html=1;entryX=1;entryY=0.485;entryDx=0;entryDy=0;entryPerimeter=0;" edge="1" parent="T0k8kfAdnnVemv1u1ayL-10" source="T0k8kfAdnnVemv1u1ayL-7" target="T0k8kfAdnnVemv1u1ayL-1">
          <mxGeometry relative="1" as="geometry" />
        </mxCell>
        <mxCell id="T0k8kfAdnnVemv1u1ayL-11" value="" style="group" vertex="1" connectable="0" parent="1">
          <mxGeometry x="110" y="110" width="580" height="200" as="geometry" />
        </mxCell>
        <mxCell id="T0k8kfAdnnVemv1u1ayL-12" value="Ticket" style="shape=umlFrame;whiteSpace=wrap;html=1;pointerEvents=0;" vertex="1" parent="T0k8kfAdnnVemv1u1ayL-11">
          <mxGeometry width="420" height="200" as="geometry" />
        </mxCell>
        <mxCell id="T0k8kfAdnnVemv1u1ayL-13" style="edgeStyle=orthogonalEdgeStyle;rounded=0;orthogonalLoop=1;jettySize=auto;html=1;" edge="1" parent="T0k8kfAdnnVemv1u1ayL-11" source="T0k8kfAdnnVemv1u1ayL-14" target="T0k8kfAdnnVemv1u1ayL-15">
          <mxGeometry relative="1" as="geometry" />
        </mxCell>
        <mxCell id="T0k8kfAdnnVemv1u1ayL-14" value="&lt;p style=&quot;margin:0px;margin-top:4px;text-align:center;&quot;&gt;&lt;b&gt;Ticket&lt;/b&gt;&lt;/p&gt;&lt;hr size=&quot;1&quot; style=&quot;border-style:solid;&quot;&gt;&lt;div style=&quot;height:2px;&quot;&gt;&lt;/div&gt;" style="verticalAlign=top;align=left;overflow=fill;html=1;whiteSpace=wrap;" vertex="1" parent="T0k8kfAdnnVemv1u1ayL-11">
          <mxGeometry x="30" y="70" width="140" height="60" as="geometry" />
        </mxCell>
        <mxCell id="T0k8kfAdnnVemv1u1ayL-15" value="&lt;p style=&quot;margin:0px;margin-top:4px;text-align:center;&quot;&gt;&lt;b&gt;Ticket Message&lt;/b&gt;&lt;/p&gt;&lt;hr size=&quot;1&quot; style=&quot;border-style:solid;&quot;&gt;&lt;div style=&quot;height:2px;&quot;&gt;&lt;/div&gt;" style="verticalAlign=top;align=left;overflow=fill;html=1;whiteSpace=wrap;" vertex="1" parent="T0k8kfAdnnVemv1u1ayL-11">
          <mxGeometry x="230" y="70" width="140" height="60" as="geometry" />
        </mxCell>
        <mxCell id="T0k8kfAdnnVemv1u1ayL-16" value="Sql Server&amp;nbsp;" style="shape=datastore;whiteSpace=wrap;html=1;" vertex="1" parent="T0k8kfAdnnVemv1u1ayL-11">
          <mxGeometry x="520" y="40" width="60" height="60" as="geometry" />
        </mxCell>
        <mxCell id="T0k8kfAdnnVemv1u1ayL-17" style="edgeStyle=orthogonalEdgeStyle;rounded=0;orthogonalLoop=1;jettySize=auto;html=1;entryX=1;entryY=0.485;entryDx=0;entryDy=0;entryPerimeter=0;" edge="1" parent="T0k8kfAdnnVemv1u1ayL-11" source="T0k8kfAdnnVemv1u1ayL-16" target="T0k8kfAdnnVemv1u1ayL-12">
          <mxGeometry relative="1" as="geometry" />
        </mxCell>
        <mxCell id="T0k8kfAdnnVemv1u1ayL-18" value="" style="group" vertex="1" connectable="0" parent="1">
          <mxGeometry x="110" y="570" width="580" height="200" as="geometry" />
        </mxCell>
        <mxCell id="T0k8kfAdnnVemv1u1ayL-19" value="Visit" style="shape=umlFrame;whiteSpace=wrap;html=1;pointerEvents=0;" vertex="1" parent="T0k8kfAdnnVemv1u1ayL-18">
          <mxGeometry width="420" height="200" as="geometry" />
        </mxCell>
        <mxCell id="T0k8kfAdnnVemv1u1ayL-21" value="&lt;p style=&quot;margin:0px;margin-top:4px;text-align:center;&quot;&gt;&lt;b&gt;User Visit&lt;/b&gt;&lt;/p&gt;&lt;hr size=&quot;1&quot; style=&quot;border-style:solid;&quot;&gt;&lt;div style=&quot;height:2px;&quot;&gt;&lt;/div&gt;" style="verticalAlign=top;align=left;overflow=fill;html=1;whiteSpace=wrap;" vertex="1" parent="T0k8kfAdnnVemv1u1ayL-18">
          <mxGeometry x="120" y="70" width="140" height="60" as="geometry" />
        </mxCell>
        <mxCell id="T0k8kfAdnnVemv1u1ayL-23" value="Mongo DB" style="shape=datastore;whiteSpace=wrap;html=1;" vertex="1" parent="T0k8kfAdnnVemv1u1ayL-18">
          <mxGeometry x="520" y="40" width="60" height="60" as="geometry" />
        </mxCell>
        <mxCell id="T0k8kfAdnnVemv1u1ayL-24" style="edgeStyle=orthogonalEdgeStyle;rounded=0;orthogonalLoop=1;jettySize=auto;html=1;entryX=1;entryY=0.485;entryDx=0;entryDy=0;entryPerimeter=0;" edge="1" parent="T0k8kfAdnnVemv1u1ayL-18" source="T0k8kfAdnnVemv1u1ayL-23" target="T0k8kfAdnnVemv1u1ayL-19">
          <mxGeometry relative="1" as="geometry" />
        </mxCell>
        <mxCell id="T0k8kfAdnnVemv1u1ayL-30" value="" style="group" vertex="1" connectable="0" parent="1">
          <mxGeometry x="800" y="100" width="580" height="200" as="geometry" />
        </mxCell>
        <mxCell id="T0k8kfAdnnVemv1u1ayL-31" value="User Report" style="shape=umlFrame;whiteSpace=wrap;html=1;pointerEvents=0;" vertex="1" parent="T0k8kfAdnnVemv1u1ayL-30">
          <mxGeometry width="420" height="200" as="geometry" />
        </mxCell>
        <mxCell id="T0k8kfAdnnVemv1u1ayL-33" value="&lt;p style=&quot;margin:0px;margin-top:4px;text-align:center;&quot;&gt;&lt;b&gt;Visit Video&lt;/b&gt;&lt;/p&gt;&lt;hr size=&quot;1&quot; style=&quot;border-style:solid;&quot;&gt;&lt;div style=&quot;height:2px;&quot;&gt;&lt;/div&gt;" style="verticalAlign=top;align=left;overflow=fill;html=1;whiteSpace=wrap;" vertex="1" parent="T0k8kfAdnnVemv1u1ayL-30">
          <mxGeometry x="30" y="70" width="140" height="60" as="geometry" />
        </mxCell>
        <mxCell id="T0k8kfAdnnVemv1u1ayL-34" value="&lt;p style=&quot;margin:0px;margin-top:4px;text-align:center;&quot;&gt;&lt;b&gt;Download Video&lt;/b&gt;&lt;/p&gt;&lt;hr size=&quot;1&quot; style=&quot;border-style:solid;&quot;&gt;&lt;div style=&quot;height:2px;&quot;&gt;&lt;/div&gt;" style="verticalAlign=top;align=left;overflow=fill;html=1;whiteSpace=wrap;" vertex="1" parent="T0k8kfAdnnVemv1u1ayL-30">
          <mxGeometry x="230" y="70" width="140" height="60" as="geometry" />
        </mxCell>
        <mxCell id="T0k8kfAdnnVemv1u1ayL-35" value="Mongo DB" style="shape=datastore;whiteSpace=wrap;html=1;" vertex="1" parent="T0k8kfAdnnVemv1u1ayL-30">
          <mxGeometry x="500" y="40" width="80" height="100" as="geometry" />
        </mxCell>
        <mxCell id="T0k8kfAdnnVemv1u1ayL-36" style="edgeStyle=orthogonalEdgeStyle;rounded=0;orthogonalLoop=1;jettySize=auto;html=1;entryX=1;entryY=0.485;entryDx=0;entryDy=0;entryPerimeter=0;" edge="1" parent="T0k8kfAdnnVemv1u1ayL-30" source="T0k8kfAdnnVemv1u1ayL-35" target="T0k8kfAdnnVemv1u1ayL-31">
          <mxGeometry relative="1" as="geometry" />
        </mxCell>
        <mxCell id="T0k8kfAdnnVemv1u1ayL-37" value="" style="group" vertex="1" connectable="0" parent="1">
          <mxGeometry x="800" y="340" width="580" height="200" as="geometry" />
        </mxCell>
        <mxCell id="T0k8kfAdnnVemv1u1ayL-38" value="Comment" style="shape=umlFrame;whiteSpace=wrap;html=1;pointerEvents=0;" vertex="1" parent="T0k8kfAdnnVemv1u1ayL-37">
          <mxGeometry width="420" height="200" as="geometry" />
        </mxCell>
        <mxCell id="T0k8kfAdnnVemv1u1ayL-40" value="&lt;p style=&quot;margin:0px;margin-top:4px;text-align:center;&quot;&gt;&lt;b&gt;Comment&lt;/b&gt;&lt;/p&gt;&lt;hr size=&quot;1&quot; style=&quot;border-style:solid;&quot;&gt;&lt;div style=&quot;height:2px;&quot;&gt;&lt;/div&gt;" style="verticalAlign=top;align=left;overflow=fill;html=1;whiteSpace=wrap;" vertex="1" parent="T0k8kfAdnnVemv1u1ayL-37">
          <mxGeometry x="30" y="70" width="140" height="60" as="geometry" />
        </mxCell>
        <mxCell id="T0k8kfAdnnVemv1u1ayL-41" value="&lt;p style=&quot;margin:0px;margin-top:4px;text-align:center;&quot;&gt;&lt;b&gt;User Reactions&lt;/b&gt;&lt;/p&gt;&lt;hr size=&quot;1&quot; style=&quot;border-style:solid;&quot;&gt;&lt;div style=&quot;height:2px;&quot;&gt;&lt;/div&gt;" style="verticalAlign=top;align=left;overflow=fill;html=1;whiteSpace=wrap;" vertex="1" parent="T0k8kfAdnnVemv1u1ayL-37">
          <mxGeometry x="230" y="70" width="140" height="60" as="geometry" />
        </mxCell>
        <mxCell id="T0k8kfAdnnVemv1u1ayL-42" value="Sql Server&amp;nbsp;" style="shape=datastore;whiteSpace=wrap;html=1;" vertex="1" parent="T0k8kfAdnnVemv1u1ayL-37">
          <mxGeometry x="520" y="40" width="60" height="60" as="geometry" />
        </mxCell>
        <mxCell id="T0k8kfAdnnVemv1u1ayL-43" style="edgeStyle=orthogonalEdgeStyle;rounded=0;orthogonalLoop=1;jettySize=auto;html=1;entryX=1;entryY=0.485;entryDx=0;entryDy=0;entryPerimeter=0;" edge="1" parent="T0k8kfAdnnVemv1u1ayL-37" source="T0k8kfAdnnVemv1u1ayL-42" target="T0k8kfAdnnVemv1u1ayL-38">
          <mxGeometry relative="1" as="geometry" />
        </mxCell>
        <mxCell id="T0k8kfAdnnVemv1u1ayL-44" value="" style="group" vertex="1" connectable="0" parent="1">
          <mxGeometry x="800" y="560" width="580" height="200" as="geometry" />
        </mxCell>
        <mxCell id="T0k8kfAdnnVemv1u1ayL-45" value="Questions Ansers" style="shape=umlFrame;whiteSpace=wrap;html=1;pointerEvents=0;" vertex="1" parent="T0k8kfAdnnVemv1u1ayL-44">
          <mxGeometry width="420" height="200" as="geometry" />
        </mxCell>
        <mxCell id="T0k8kfAdnnVemv1u1ayL-50" style="edgeStyle=orthogonalEdgeStyle;rounded=0;orthogonalLoop=1;jettySize=auto;html=1;entryX=0;entryY=0.5;entryDx=0;entryDy=0;" edge="1" parent="T0k8kfAdnnVemv1u1ayL-44" source="T0k8kfAdnnVemv1u1ayL-46" target="T0k8kfAdnnVemv1u1ayL-47">
          <mxGeometry relative="1" as="geometry" />
        </mxCell>
        <mxCell id="T0k8kfAdnnVemv1u1ayL-46" value="&lt;p style=&quot;margin:0px;margin-top:4px;text-align:center;&quot;&gt;&lt;b&gt;Questions&lt;/b&gt;&lt;/p&gt;&lt;hr size=&quot;1&quot; style=&quot;border-style:solid;&quot;&gt;&lt;div style=&quot;height:2px;&quot;&gt;&lt;/div&gt;" style="verticalAlign=top;align=left;overflow=fill;html=1;whiteSpace=wrap;" vertex="1" parent="T0k8kfAdnnVemv1u1ayL-44">
          <mxGeometry x="30" y="70" width="140" height="60" as="geometry" />
        </mxCell>
        <mxCell id="T0k8kfAdnnVemv1u1ayL-47" value="&lt;p style=&quot;margin:0px;margin-top:4px;text-align:center;&quot;&gt;&lt;b&gt;Ansers&lt;/b&gt;&lt;/p&gt;&lt;hr size=&quot;1&quot; style=&quot;border-style:solid;&quot;&gt;&lt;div style=&quot;height:2px;&quot;&gt;&lt;/div&gt;" style="verticalAlign=top;align=left;overflow=fill;html=1;whiteSpace=wrap;" vertex="1" parent="T0k8kfAdnnVemv1u1ayL-44">
          <mxGeometry x="230" y="70" width="140" height="60" as="geometry" />
        </mxCell>
        <mxCell id="T0k8kfAdnnVemv1u1ayL-48" value="Sql Server&amp;nbsp;" style="shape=datastore;whiteSpace=wrap;html=1;" vertex="1" parent="T0k8kfAdnnVemv1u1ayL-44">
          <mxGeometry x="520" y="40" width="60" height="60" as="geometry" />
        </mxCell>
        <mxCell id="T0k8kfAdnnVemv1u1ayL-49" style="edgeStyle=orthogonalEdgeStyle;rounded=0;orthogonalLoop=1;jettySize=auto;html=1;entryX=1;entryY=0.485;entryDx=0;entryDy=0;entryPerimeter=0;" edge="1" parent="T0k8kfAdnnVemv1u1ayL-44" source="T0k8kfAdnnVemv1u1ayL-48" target="T0k8kfAdnnVemv1u1ayL-45">
          <mxGeometry relative="1" as="geometry" />
        </mxCell>
        <mxCell id="T0k8kfAdnnVemv1u1ayL-51" value="" style="group" vertex="1" connectable="0" parent="1">
          <mxGeometry x="800" y="790" width="580" height="200" as="geometry" />
        </mxCell>
        <mxCell id="T0k8kfAdnnVemv1u1ayL-52" value="Users" style="shape=umlFrame;whiteSpace=wrap;html=1;pointerEvents=0;" vertex="1" parent="T0k8kfAdnnVemv1u1ayL-51">
          <mxGeometry width="420" height="200" as="geometry" />
        </mxCell>
        <mxCell id="T0k8kfAdnnVemv1u1ayL-62" style="edgeStyle=orthogonalEdgeStyle;rounded=0;orthogonalLoop=1;jettySize=auto;html=1;exitX=0.5;exitY=1;exitDx=0;exitDy=0;entryX=0.5;entryY=0;entryDx=0;entryDy=0;" edge="1" parent="T0k8kfAdnnVemv1u1ayL-51" source="T0k8kfAdnnVemv1u1ayL-54" target="T0k8kfAdnnVemv1u1ayL-58">
          <mxGeometry relative="1" as="geometry" />
        </mxCell>
        <mxCell id="T0k8kfAdnnVemv1u1ayL-54" value="&lt;p style=&quot;margin:0px;margin-top:4px;text-align:center;&quot;&gt;&lt;b&gt;User&lt;/b&gt;&lt;/p&gt;&lt;hr size=&quot;1&quot; style=&quot;border-style:solid;&quot;&gt;&lt;div style=&quot;height:2px;&quot;&gt;&lt;/div&gt;" style="verticalAlign=top;align=left;overflow=fill;html=1;whiteSpace=wrap;" vertex="1" parent="T0k8kfAdnnVemv1u1ayL-51">
          <mxGeometry x="80" y="20" width="140" height="60" as="geometry" />
        </mxCell>
        <mxCell id="T0k8kfAdnnVemv1u1ayL-55" value="&lt;p style=&quot;margin:0px;margin-top:4px;text-align:center;&quot;&gt;&lt;b&gt;Role&lt;/b&gt;&lt;/p&gt;&lt;hr size=&quot;1&quot; style=&quot;border-style:solid;&quot;&gt;&lt;div style=&quot;height:2px;&quot;&gt;&lt;/div&gt;" style="verticalAlign=top;align=left;overflow=fill;html=1;whiteSpace=wrap;" vertex="1" parent="T0k8kfAdnnVemv1u1ayL-51">
          <mxGeometry x="250" y="20" width="140" height="60" as="geometry" />
        </mxCell>
        <mxCell id="T0k8kfAdnnVemv1u1ayL-56" value="Sql Server&amp;nbsp;" style="shape=datastore;whiteSpace=wrap;html=1;" vertex="1" parent="T0k8kfAdnnVemv1u1ayL-51">
          <mxGeometry x="520" y="40" width="60" height="60" as="geometry" />
        </mxCell>
        <mxCell id="T0k8kfAdnnVemv1u1ayL-57" style="edgeStyle=orthogonalEdgeStyle;rounded=0;orthogonalLoop=1;jettySize=auto;html=1;entryX=1;entryY=0.485;entryDx=0;entryDy=0;entryPerimeter=0;" edge="1" parent="T0k8kfAdnnVemv1u1ayL-51" source="T0k8kfAdnnVemv1u1ayL-56" target="T0k8kfAdnnVemv1u1ayL-52">
          <mxGeometry relative="1" as="geometry" />
        </mxCell>
        <mxCell id="T0k8kfAdnnVemv1u1ayL-61" style="edgeStyle=orthogonalEdgeStyle;rounded=0;orthogonalLoop=1;jettySize=auto;html=1;" edge="1" parent="T0k8kfAdnnVemv1u1ayL-51" source="T0k8kfAdnnVemv1u1ayL-58">
          <mxGeometry relative="1" as="geometry">
            <mxPoint x="320" y="80" as="targetPoint" />
            <Array as="points">
              <mxPoint x="321" y="110" />
            </Array>
          </mxGeometry>
        </mxCell>
        <mxCell id="T0k8kfAdnnVemv1u1ayL-58" value="&lt;p style=&quot;margin:0px;margin-top:4px;text-align:center;&quot;&gt;&lt;b&gt;User Role&lt;/b&gt;&lt;/p&gt;&lt;hr size=&quot;1&quot; style=&quot;border-style:solid;&quot;&gt;&lt;div style=&quot;height:2px;&quot;&gt;&lt;/div&gt;" style="verticalAlign=top;align=left;overflow=fill;html=1;whiteSpace=wrap;" vertex="1" parent="T0k8kfAdnnVemv1u1ayL-51">
          <mxGeometry x="80" y="100" width="140" height="60" as="geometry" />
        </mxCell>
        <mxCell id="T0k8kfAdnnVemv1u1ayL-60" style="edgeStyle=orthogonalEdgeStyle;rounded=0;orthogonalLoop=1;jettySize=auto;html=1;entryX=0.5;entryY=1;entryDx=0;entryDy=0;" edge="1" parent="T0k8kfAdnnVemv1u1ayL-51" source="T0k8kfAdnnVemv1u1ayL-59" target="T0k8kfAdnnVemv1u1ayL-55">
          <mxGeometry relative="1" as="geometry" />
        </mxCell>
        <mxCell id="T0k8kfAdnnVemv1u1ayL-59" value="&lt;p style=&quot;margin:0px;margin-top:4px;text-align:center;&quot;&gt;&lt;b&gt;RolePermissions&lt;/b&gt;&lt;/p&gt;&lt;hr size=&quot;1&quot; style=&quot;border-style:solid;&quot;&gt;&lt;div style=&quot;height:2px;&quot;&gt;&lt;/div&gt;" style="verticalAlign=top;align=left;overflow=fill;html=1;whiteSpace=wrap;" vertex="1" parent="T0k8kfAdnnVemv1u1ayL-51">
          <mxGeometry x="260" y="130" width="140" height="60" as="geometry" />
        </mxCell>
        <mxCell id="T0k8kfAdnnVemv1u1ayL-63" value="" style="group" vertex="1" connectable="0" parent="1">
          <mxGeometry x="110" y="800" width="580" height="200" as="geometry" />
        </mxCell>
        <mxCell id="T0k8kfAdnnVemv1u1ayL-64" value="Learn Tv" style="shape=umlFrame;whiteSpace=wrap;html=1;pointerEvents=0;" vertex="1" parent="T0k8kfAdnnVemv1u1ayL-63">
          <mxGeometry width="420" height="200" as="geometry" />
        </mxCell>
        <mxCell id="T0k8kfAdnnVemv1u1ayL-65" style="edgeStyle=orthogonalEdgeStyle;rounded=0;orthogonalLoop=1;jettySize=auto;html=1;" edge="1" parent="T0k8kfAdnnVemv1u1ayL-63" source="T0k8kfAdnnVemv1u1ayL-66" target="T0k8kfAdnnVemv1u1ayL-67">
          <mxGeometry relative="1" as="geometry" />
        </mxCell>
        <mxCell id="T0k8kfAdnnVemv1u1ayL-66" value="&lt;p style=&quot;margin:0px;margin-top:4px;text-align:center;&quot;&gt;&lt;b&gt;TV Post&lt;/b&gt;&lt;/p&gt;&lt;hr size=&quot;1&quot; style=&quot;border-style:solid;&quot;&gt;&lt;div style=&quot;height:2px;&quot;&gt;&lt;/div&gt;" style="verticalAlign=top;align=left;overflow=fill;html=1;whiteSpace=wrap;" vertex="1" parent="T0k8kfAdnnVemv1u1ayL-63">
          <mxGeometry x="30" y="70" width="140" height="60" as="geometry" />
        </mxCell>
        <mxCell id="T0k8kfAdnnVemv1u1ayL-67" value="&lt;p style=&quot;margin:0px;margin-top:4px;text-align:center;&quot;&gt;&lt;b&gt;TV Category&lt;/b&gt;&lt;/p&gt;&lt;hr size=&quot;1&quot; style=&quot;border-style:solid;&quot;&gt;&lt;div style=&quot;height:2px;&quot;&gt;&lt;/div&gt;" style="verticalAlign=top;align=left;overflow=fill;html=1;whiteSpace=wrap;" vertex="1" parent="T0k8kfAdnnVemv1u1ayL-63">
          <mxGeometry x="230" y="70" width="140" height="60" as="geometry" />
        </mxCell>
        <mxCell id="T0k8kfAdnnVemv1u1ayL-68" value="Sql Server" style="shape=datastore;whiteSpace=wrap;html=1;" vertex="1" parent="T0k8kfAdnnVemv1u1ayL-63">
          <mxGeometry x="520" y="40" width="60" height="60" as="geometry" />
        </mxCell>
        <mxCell id="T0k8kfAdnnVemv1u1ayL-69" style="edgeStyle=orthogonalEdgeStyle;rounded=0;orthogonalLoop=1;jettySize=auto;html=1;entryX=1;entryY=0.485;entryDx=0;entryDy=0;entryPerimeter=0;" edge="1" parent="T0k8kfAdnnVemv1u1ayL-63" source="T0k8kfAdnnVemv1u1ayL-68" target="T0k8kfAdnnVemv1u1ayL-64">
          <mxGeometry relative="1" as="geometry" />
        </mxCell>
        <mxCell id="T0k8kfAdnnVemv1u1ayL-71" value="Core Domain" style="shape=umlFrame;whiteSpace=wrap;html=1;pointerEvents=0;" vertex="1" parent="1">
          <mxGeometry x="110" y="1050" width="420" height="360" as="geometry" />
        </mxCell>
        <mxCell id="T0k8kfAdnnVemv1u1ayL-72" style="edgeStyle=orthogonalEdgeStyle;rounded=0;orthogonalLoop=1;jettySize=auto;html=1;" edge="1" parent="1" source="T0k8kfAdnnVemv1u1ayL-73" target="T0k8kfAdnnVemv1u1ayL-74">
          <mxGeometry relative="1" as="geometry" />
        </mxCell>
        <mxCell id="T0k8kfAdnnVemv1u1ayL-80" style="edgeStyle=orthogonalEdgeStyle;rounded=0;orthogonalLoop=1;jettySize=auto;html=1;exitX=0.5;exitY=1;exitDx=0;exitDy=0;entryX=0.5;entryY=0;entryDx=0;entryDy=0;" edge="1" parent="1" source="T0k8kfAdnnVemv1u1ayL-73" target="T0k8kfAdnnVemv1u1ayL-79">
          <mxGeometry relative="1" as="geometry" />
        </mxCell>
        <mxCell id="T0k8kfAdnnVemv1u1ayL-73" value="&lt;p style=&quot;margin:0px;margin-top:4px;text-align:center;&quot;&gt;&lt;b&gt;Course&lt;/b&gt;&lt;/p&gt;&lt;hr size=&quot;1&quot; style=&quot;border-style:solid;&quot;&gt;&lt;div style=&quot;height:2px;&quot;&gt;&lt;/div&gt;" style="verticalAlign=top;align=left;overflow=fill;html=1;whiteSpace=wrap;" vertex="1" parent="1">
          <mxGeometry x="140" y="1120" width="140" height="60" as="geometry" />
        </mxCell>
        <mxCell id="T0k8kfAdnnVemv1u1ayL-78" style="edgeStyle=orthogonalEdgeStyle;rounded=0;orthogonalLoop=1;jettySize=auto;html=1;exitX=0.5;exitY=1;exitDx=0;exitDy=0;" edge="1" parent="1" source="T0k8kfAdnnVemv1u1ayL-74">
          <mxGeometry relative="1" as="geometry">
            <mxPoint x="410" y="1160" as="targetPoint" />
          </mxGeometry>
        </mxCell>
        <mxCell id="T0k8kfAdnnVemv1u1ayL-74" value="&lt;p style=&quot;margin:0px;margin-top:4px;text-align:center;&quot;&gt;&lt;b&gt;Section&lt;/b&gt;&lt;/p&gt;&lt;hr size=&quot;1&quot; style=&quot;border-style:solid;&quot;&gt;&lt;div style=&quot;height:2px;&quot;&gt;&lt;/div&gt;" style="verticalAlign=top;align=left;overflow=fill;html=1;whiteSpace=wrap;" vertex="1" parent="1">
          <mxGeometry x="340" y="1060" width="140" height="60" as="geometry" />
        </mxCell>
        <mxCell id="T0k8kfAdnnVemv1u1ayL-75" value="Sql Server" style="shape=datastore;whiteSpace=wrap;html=1;" vertex="1" parent="1">
          <mxGeometry x="630" y="1090" width="60" height="60" as="geometry" />
        </mxCell>
        <mxCell id="T0k8kfAdnnVemv1u1ayL-76" style="edgeStyle=orthogonalEdgeStyle;rounded=0;orthogonalLoop=1;jettySize=auto;html=1;entryX=1;entryY=0.485;entryDx=0;entryDy=0;entryPerimeter=0;" edge="1" parent="1" source="T0k8kfAdnnVemv1u1ayL-75" target="T0k8kfAdnnVemv1u1ayL-71">
          <mxGeometry relative="1" as="geometry" />
        </mxCell>
        <mxCell id="T0k8kfAdnnVemv1u1ayL-77" value="&lt;p style=&quot;margin:0px;margin-top:4px;text-align:center;&quot;&gt;&lt;b&gt;Episode&lt;/b&gt;&lt;/p&gt;&lt;hr size=&quot;1&quot; style=&quot;border-style:solid;&quot;&gt;&lt;div style=&quot;height:2px;&quot;&gt;&lt;/div&gt;" style="verticalAlign=top;align=left;overflow=fill;html=1;whiteSpace=wrap;" vertex="1" parent="1">
          <mxGeometry x="340" y="1160" width="140" height="60" as="geometry" />
        </mxCell>
        <mxCell id="T0k8kfAdnnVemv1u1ayL-79" value="&lt;p style=&quot;margin:0px;margin-top:4px;text-align:center;&quot;&gt;&lt;b&gt;Teacher&lt;/b&gt;&lt;/p&gt;&lt;hr size=&quot;1&quot; style=&quot;border-style:solid;&quot;&gt;&lt;div style=&quot;height:2px;&quot;&gt;&lt;/div&gt;" style="verticalAlign=top;align=left;overflow=fill;html=1;whiteSpace=wrap;" vertex="1" parent="1">
          <mxGeometry x="140" y="1250" width="140" height="60" as="geometry" />
        </mxCell>
      </root>
    </mxGraphModel>
  </diagram>
</mxfile>
